<mxfile host="app.diagrams.net" modified="2023-07-25T02:41:10.966Z" agent="Mozilla/5.0 (Windows NT 10.0; Win64; x64) AppleWebKit/537.36 (KHTML, like Gecko) Chrome/114.0.0.0 Safari/537.36" version="21.6.2" etag="2q7-9tnFT35_CVtH61I8" type="github">
  <diagram name="第 1 页" id="RW0FA2okoo0LEQ3FKzLQ">
    <mxGraphModel>
      <root>
        <mxCell id="0" />
        <mxCell id="1" parent="0" />
      </root>
    </mxGraphModel>
  </diagram>
</mxfile>
